# xmcd CD database file
#
# Track frame offsets:
#	150
#	24407
#	43790
#	64579
#	81413
#	95564
#	115551
#	138018
#	165112
#	191849
#	208841
#	227277
#
# Disc length: 3237 seconds
#
# Revision: 2
# Processed by: cddbd v1.5PL3 Copyright (c) Steve Scherf et al.
# Submitted via: CDex 1.51
#
DISCID=910ca30c
DTITLE=Marco Vienna - Cafe Espresso "Made In Italy"
DYEAR=2003
DGENRE=Jazz
TTITLE0=Donna
TTITLE1=I Ricordi Della Sera
TTITLE2=Domenica Bestiale
TTITLE3=Non Gioco Piu
TTITLE4=Roma Nun fa la Stupida Stasera
TTITLE5=Non Illuderti
TTITLE6=Senza Fine
TTITLE7=Le Tue Mani
TTITLE8=Parole Parole Parole
TTITLE9=Giu La Testa
TTITLE10=El Chiamano Estate
TTITLE11=I Soliti Ignoti
EXTD=YEAR: 2003
EXTT0=
EXTT1=
EXTT2=
EXTT3=
EXTT4=
EXTT5=
EXTT6=
EXTT7=
EXTT8=
EXTT9=
EXTT10=
EXTT11=
PLAYORDER=
